<svg width="36" height="23" viewBox="0 0 36 23" fill="none" xmlns="http://www.w3.org/2000/svg">
<path d="M0 3.79492C0 2.13807 1.34315 0.794922 3 0.794922H33C34.6569 0.794922 36 2.13807 36 3.79492V19.7949C36 21.4518 34.6569 22.7949 33 22.7949H3C1.34315 22.7949 0 21.4518 0 19.7949V3.79492Z" fill="#016FD0"/>
<path fill-rule="evenodd" clip-rule="evenodd" d="M27.621 12.2842V13.798H23.868V14.8503H27.531V16.3642H23.868V17.398H27.621V18.9303L30.663 15.6073L27.621 12.2842ZM26.631 6.61649L25.371 3.67188H21.771L18.081 12.275H21.078V19.9088L30.33 19.918L31.779 18.2565L33.246 19.918H36V17.4903L34.272 15.5888L36 13.6965V11.3057L34.263 11.315V6.71803L32.634 11.315H31.05L29.376 6.69957V11.315H25.596L25.056 9.96726H22.086L21.546 11.315H19.548L22.455 4.60418V4.59495H24.75L27.621 11.2503V4.59495L30.411 4.60418L31.851 8.73034L33.309 4.59495H36V3.67188H32.607L31.842 5.87803L31.077 3.67188H26.631V6.61649ZM22.077 12.2565V18.9673H27.621V18.958H29.907L31.797 16.8165L33.705 18.958H36V18.8657L32.994 15.6073L36 12.3026V12.2565H33.732L31.842 14.3796L29.97 12.2565H22.077ZM22.707 8.46264L23.571 6.33034L24.444 8.46264H22.707Z" fill="white"/>
</svg>
