<svg width="28" height="10" viewBox="0 0 28 10" fill="none" xmlns="http://www.w3.org/2000/svg">
<path d="M4.70095 9.4019C7.29721 9.4019 9.4019 7.29721 9.4019 4.70095C9.4019 2.10469 7.29721 0 4.70095 0C2.10469 0 0 2.10469 0 4.70095C0 7.29721 2.10469 9.4019 4.70095 9.4019Z" fill="#EE312A"/>
<path d="M4.70036 6.70661C3.64946 4.32441 2.87879 2.09912 2.87879 2.09912H1.26758C1.26758 2.09912 2.24825 4.95542 4.06982 8.5274H5.33091C7.15248 4.95542 8.13315 2.09912 8.13315 2.09912H6.52193C6.52193 2.09912 5.75127 4.32441 4.70036 6.70661Z" fill="white"/>
<path d="M27.1612 6.40861H24.0215C24.0215 6.40861 24.0912 7.46365 25.4867 7.46365C26.1844 7.46365 26.8821 7.25248 26.8821 7.25248L27.0217 8.37762C27.0217 8.37762 26.3239 8.65892 25.3471 8.65892C23.9517 8.65892 22.6958 7.95569 22.6958 5.98668C22.6958 4.43958 23.6726 3.45508 25.068 3.45508C27.1612 3.45508 27.3008 5.56475 27.1612 6.40861ZM24.9983 4.43958C24.0912 4.43958 24.0215 5.42408 24.0215 5.42408H25.9751C25.9751 5.42408 25.9053 4.43958 24.9983 4.43958Z" fill="white"/>
<path d="M16.3202 4.75023L16.5295 3.63101C16.5295 3.63101 14.9133 3.13923 13.5996 4.05072V8.52746H14.9949L14.9948 4.89012C15.5528 4.47042 16.3202 4.75023 16.3202 4.75023Z" fill="white"/>
<path d="M12.5118 6.40861H9.37209C9.37209 6.40861 9.44184 7.46365 10.8373 7.46365C11.535 7.46365 12.2327 7.25248 12.2327 7.25248L12.3722 8.37762C12.3722 8.37762 11.6745 8.65892 10.6977 8.65892C9.30228 8.65892 8.04639 7.95569 8.04639 5.98668C8.04639 4.43958 9.02321 3.45508 10.4187 3.45508C12.5118 3.45508 12.6513 5.56475 12.5118 6.40861ZM10.3488 4.43958C9.44184 4.43958 9.37209 5.42408 9.37209 5.42408H11.3257C11.3257 5.42408 11.2559 4.43958 10.3488 4.43958Z" fill="white"/>
<path d="M19.7218 6.84843C19.2868 5.7902 18.9359 4.69933 18.6723 3.58594L17.2729 3.58612C17.2729 3.58612 17.9726 6.28832 19.1622 8.5274H20.2814C21.471 6.28832 22.1707 3.58662 22.1707 3.58662H20.7714C20.5077 4.69977 20.1568 5.79042 19.7218 6.84843Z" fill="white"/>
</svg>
