<svg width="121" height="53" viewBox="0 0 121 53" fill="none" xmlns="http://www.w3.org/2000/svg">
<path fill-rule="evenodd" clip-rule="evenodd" d="M0.933594 0.0588379L19.708 36.2746L28.9938 21.0078C28.0005 21.6559 26.7711 23.6554 25.8355 21.5598L14.4757 0.10235L0.93375 0.058994L0.933594 0.0588379Z" fill="#373435"/>
<path fill-rule="evenodd" clip-rule="evenodd" d="M26.1841 0L32.7324 12.5817C33.3827 13.6499 32.6865 14.8052 32.2701 15.8382L41.7089 0.102307L26.1841 0Z" fill="#FCBA41"/>
<path fill-rule="evenodd" clip-rule="evenodd" d="M18.281 38.5827C14.0075 44.7897 9.36917 38.3099 7.23695 38.4665C-8.67132 37.1064 4.67023 64.5687 18.281 38.5827Z" fill="#373435"/>
<path d="M52.503 40.3589L52.9376 40.6111C52.3293 42.4015 50.9386 43.2968 48.7657 43.2968C47.3925 43.2968 46.3059 42.9317 45.4889 42.2015C45.0456 41.8191 44.5935 41.2107 44.1155 40.3589C43.1768 41.1933 42.4641 41.7844 41.9774 42.1234C40.7866 42.9055 39.3612 43.2968 37.6923 43.2968C35.928 43.2968 34.4765 42.8709 33.3554 42.0278C32.1819 41.1412 31.5996 39.907 31.5996 38.3078C31.5996 36.752 32.1559 35.4742 33.2596 34.492C34.1375 33.7185 35.5804 33.0666 37.5882 32.5625C39.8133 31.9975 41.3777 31.4587 42.2816 30.9372C42.9944 30.5287 43.4811 30.0159 43.7331 29.4075C43.9505 28.8775 44.0634 28.1473 44.0634 27.1911C44.0634 25.4095 43.7679 24.0447 43.1768 23.0974C42.4641 21.9588 41.395 21.3939 39.9696 21.3939C39.0309 21.3939 38.2574 21.6895 37.649 22.2805C37.3274 22.5935 36.858 23.4539 36.2496 24.8533C35.9105 25.6442 35.2934 26.0355 34.3895 26.0355C33.7114 26.0355 33.19 25.792 32.8164 25.3053C32.5296 24.9315 32.3817 24.5055 32.3817 24.0363C32.3817 23.2888 32.7989 22.6717 33.6245 22.1589C35.1368 21.2635 37.1013 20.8203 39.5262 20.8203C40.9863 20.8203 42.4465 21.0549 43.9067 21.533C45.6364 22.0893 46.7749 22.8541 47.3399 23.8189C47.731 24.4793 47.9222 25.6267 47.9222 27.2695V36.6913C47.9222 38.2994 47.9916 39.3858 48.122 39.9681C48.4176 41.1763 49.1128 41.7847 50.2168 41.7847C50.947 41.7847 51.5378 41.5326 51.9985 41.0286C52.1114 40.8982 52.2856 40.6719 52.503 40.3589ZM44.1154 30.3288C43.2289 31.059 42.2119 31.7283 41.0735 32.3366C39.7088 33.0667 38.8137 33.5883 38.3877 33.9097C36.7797 35.1179 35.9801 36.6389 35.9801 38.4903C35.9801 39.5943 36.2669 40.4893 36.8492 41.1847C37.5011 41.967 38.3007 42.3581 39.2569 42.3581C40.4303 42.3581 41.4646 41.8976 42.3512 40.9849C43.5246 39.7855 44.1155 37.6473 44.1155 34.5792L44.1154 30.3288ZM50.6863 21.1851H60.5427V21.698C58.8739 21.9848 58.0396 22.6888 58.0396 23.8101C58.0396 24.5229 58.3786 25.7485 59.0566 27.4954L63.3676 38.3948L67.0703 29.2338C68.0003 26.9218 68.4697 25.2705 68.4697 24.2623C68.4697 22.7933 67.6354 21.9329 65.9665 21.6982V21.1852H73.2155V21.6982C72.3636 21.9502 71.7465 22.2283 71.3554 22.5326C70.8512 22.941 70.2863 23.7928 69.6778 25.0792C69.391 25.705 68.913 26.8174 68.2523 28.4168L60.8731 46.3302C59.9952 48.4685 59.2825 49.8504 58.735 50.4848C57.8223 51.5714 56.6578 52.1102 55.2495 52.1102C54.4934 52.1102 53.8241 51.9711 53.2417 51.6843C52.5813 51.3627 52.251 50.8934 52.251 50.2501C52.251 49.3028 52.8333 48.8247 54.0067 48.8247C54.4499 48.8247 54.9627 48.9376 55.5363 49.1637C56.3186 49.4592 56.8662 49.6069 57.1965 49.6069C58.2481 49.6069 59.0913 48.8247 59.7431 47.2601L60.5514 45.3305C60.8904 44.4961 61.0643 43.8704 61.0643 43.4445C61.0643 42.8187 60.7427 41.7235 60.0994 40.159L54.8063 27.4257C53.685 24.7399 52.9548 23.1754 52.6159 22.7149C52.1292 22.0977 51.486 21.7587 50.6863 21.6979V21.1851ZM72.4848 21.1851H82.3412V21.698C80.6725 21.9848 79.8381 22.6888 79.8381 23.8101C79.8381 24.5229 80.1772 25.7485 80.8551 27.4954L85.1662 38.3948L88.8689 29.2338C89.7989 26.9218 90.2683 25.2705 90.2683 24.2623C90.2683 22.7933 89.4339 21.9329 87.765 21.6982V21.1852H95.014V21.6982C94.1622 21.9502 93.5451 22.2283 93.1539 22.5326C92.6497 22.941 92.0849 23.7928 91.4763 25.0792C91.1895 25.705 90.7115 26.8174 90.0509 28.4168L82.6717 46.3302C81.7938 48.4685 81.0811 49.8504 80.5335 50.4848C79.6209 51.5714 78.4564 52.1102 77.0481 52.1102C76.292 52.1102 75.6226 51.9711 75.0403 51.6843C74.3798 51.3627 74.0495 50.8934 74.0495 50.2501C74.0495 49.3028 74.6319 48.8247 75.8053 48.8247C76.2485 48.8247 76.7613 48.9376 77.3349 49.1637C78.1171 49.4592 78.6647 49.6069 78.995 49.6069C80.0466 49.6069 80.8899 48.8247 81.5416 47.2601L82.35 45.3305C82.689 44.4961 82.8629 43.8704 82.8629 43.4445C82.8629 42.8187 82.5413 41.7235 81.898 40.159L76.6048 27.4257C75.4835 24.7399 74.7533 23.1754 74.4145 22.7149C73.9277 22.0977 73.2846 21.7587 72.4848 21.6979V21.1851ZM113.362 43.262C113.144 42.3233 113.031 41.2803 113.031 40.1244C110.911 42.2365 108.399 43.2968 105.505 43.2968C103.636 43.2968 102.08 42.8796 100.82 42.0451C99.2813 41.0283 98.5078 39.481 98.5078 37.4039V28.5471C98.4903 26.5741 98.4642 25.3226 98.4295 24.7749C98.2991 23.5059 97.7167 22.6455 96.6997 22.2021C96.2392 22.0023 95.6308 21.8284 94.8659 21.698V21.1851H102.315V34.0923C102.315 36.9432 102.532 38.8554 102.975 39.8463C103.653 41.4194 105.052 42.2017 107.173 42.2017C108.225 42.2017 109.199 41.9671 110.094 41.4977C110.98 41.0284 111.649 40.4026 112.093 39.6203C112.579 38.7166 112.858 37.6734 112.927 36.5001C112.979 35.7005 113.005 34.6923 113.005 33.4841V28.4951C112.988 26.5395 112.962 25.3053 112.927 24.775C112.797 23.506 112.223 22.6456 111.224 22.2022C110.745 22.0025 110.128 21.8286 109.364 21.6982V21.1852H116.812V35.0138C116.83 37.0475 116.873 38.2732 116.943 38.673C117.229 40.7156 118.351 41.7672 120.298 41.8368V42.3408L113.362 43.262Z" fill="#373435"/>
</svg>
